<svg width="100pt" height="100pt" viewBox="0 0 100 100">
 <path d="m51.812 7.75 12.555 26.844 29.406 3.6445c0.78906 0.097657 1.4102 0.61328 1.6562 1.3672 0.24609 0.75781 0.042968 1.5391-0.53516 2.082l-21.648 20.23 5.6211 29.094c0.15234 0.78125-0.14453 1.5312-0.78906 1.9961-0.64453 0.46875-1.4492 0.51563-2.1445 0.13281l-25.934-14.332-25.934 14.336c-0.69531 0.38281-1.5 0.33594-2.1445-0.13281s-0.94141-1.2188-0.78906-1.9961l5.6211-29.094-21.648-20.238c-0.58203-0.54297-0.78125-1.3242-0.53516-2.082 0.24609-0.75781 0.86719-1.2695 1.6562-1.3672l29.406-3.6445 12.555-26.84c0.33594-0.71875 1.0195-1.1523 1.8125-1.1523s1.4766 0.43359 1.8125 1.1523z" fill="currentColor" fill-rule="evenodd"/>
</svg>